<?xml version="1.0" encoding="iso-8859-1"?>
<!-- Generator: Adobe Illustrator 19.0.0, SVG Export Plug-In . SVG Version: 6.00 Build 0)  -->
<svg version="1.1" id="Layer_1" xmlns="http://www.w3.org/2000/svg" xmlns:xlink="http://www.w3.org/1999/xlink" x="0px" y="0px"
	 viewBox="0 0 496 496" style="enable-background:new 0 0 496 496;" xml:space="preserve">
<path style="fill:#008BF2;" d="M496,320.8c0,96.8-78.4,175.2-175.2,175.2H175.2C78.4,496,0,417.6,0,320.8V175.2
	C0,78.4,78.4,0,175.2,0h145.6C417.6,0,496,78.4,496,175.2V320.8z"/>
<path style="fill:#0078EF;" d="M0,175.2C0,78.4,78.4,0,175.2,0h145.6C417.6,0,496,78.4,496,175.2v145.6
	c0,96.8-78.4,175.2-175.2,175.2"/>
<path style="fill:#0071E2;" d="M320.8,0C417.6,0,496,78.4,496,175.2v145.6c0,96.8-78.4,175.2-175.2,175.2"/>
<g>
	<path style="fill:#FFFFFF;" d="M299.2,260h-120c-6.4,0-12-5.6-12-12s5.6-12,12-12h120c6.4,0,12,5.6,12,12S306.4,260,299.2,260z"/>
	<path style="fill:#FFFFFF;" d="M269.6,306.4c-3.2,0-6.4-0.8-8.8-3.2c-4.8-4.8-4.8-12,0-16.8l38.4-38.4l-38.4-38.4
		c-4.8-4.8-4.8-12,0-16.8s12-4.8,16.8,0l46.4,46.4c4.8,4.8,4.8,12,0,16.8l-46.4,46.4C275.2,305.6,272.8,306.4,269.6,306.4z"/>
</g>
<g>
</g>
<g>
</g>
<g>
</g>
<g>
</g>
<g>
</g>
<g>
</g>
<g>
</g>
<g>
</g>
<g>
</g>
<g>
</g>
<g>
</g>
<g>
</g>
<g>
</g>
<g>
</g>
<g>
</g>
</svg>
