<?xml version="1.0" encoding="iso-8859-1"?>
<!-- Generator: Adobe Illustrator 19.0.0, SVG Export Plug-In . SVG Version: 6.00 Build 0)  -->
<svg version="1.1" id="Layer_1" xmlns="http://www.w3.org/2000/svg" xmlns:xlink="http://www.w3.org/1999/xlink" x="0px" y="0px"
	 viewBox="0 0 496 496" style="enable-background:new 0 0 496 496;" xml:space="preserve">
<path style="fill:#82CC00;" d="M496,248c0,136.8-111.2,248-248,248S0,384.8,0,248S111.2,0,248,0S496,111.2,496,248z"/>
<path style="fill:#3EB500;" d="M248,0c136.8,0,248,111.2,248,248S384.8,496,248,496"/>
<path style="fill:#5FBF02;" d="M72.8,72.8c96.8-96.8,253.6-96.8,350.4,0s96.8,253.6,0,350.4"/>
<path style="fill:#EEFFFF;" d="M244,333.6c-3.2,0-5.6-0.8-8-3.2l-72.8-72.8c-4.8-4.8-4.8-12,0-16.8s12-4.8,16.8,0l64.8,64.8
	l123.2-124c4.8-4.8,12-4.8,16.8,0s4.8,12,0,16.8L252,330.4C249.6,332.8,246.4,333.6,244,333.6z"/>
<g>
</g>
<g>
</g>
<g>
</g>
<g>
</g>
<g>
</g>
<g>
</g>
<g>
</g>
<g>
</g>
<g>
</g>
<g>
</g>
<g>
</g>
<g>
</g>
<g>
</g>
<g>
</g>
<g>
</g>
</svg>
